<svg id="Layer_1" data-name="Layer 1" xmlns="http://www.w3.org/2000/svg" viewBox="0 0 73.03 11.86"><defs><style>.cls-1{fill:#fff;}.cls-2{fill:snow;}.cls-3{fill:#231f20;opacity:0.2;}.cls-4{fill:#f9d10a;}.cls-4,.cls-5{fill-rule:evenodd;}.cls-5{fill:#f0f4ce;}.cls-6{fill:#fce86c;}</style></defs><path class="cls-1" d="M65.6,83.27a2.61,2.61,0,0,0-.94-1.16A3,3,0,0,0,63,81.68a3,3,0,0,0-1.55.4,2.88,2.88,0,0,0-1.08,1.11A3.51,3.51,0,0,0,60,84.88a2.94,2.94,0,0,0,.42,1.56,3,3,0,0,0,1.2,1.1,3.88,3.88,0,0,0,1.82.4h1.73v-1.4h-1.7a2.2,2.2,0,0,1-.8-.13A1.49,1.49,0,0,1,62,86a1.36,1.36,0,0,1-.33-.63h4.14a1.07,1.07,0,0,0,0-.24c0-.11,0-.21,0-.29A4.16,4.16,0,0,0,65.6,83.27Zm-3.9,1a1.91,1.91,0,0,1,.12-.47,1.33,1.33,0,0,1,.25-.41,1.17,1.17,0,0,1,.39-.29A1.29,1.29,0,0,1,63,83a1.37,1.37,0,0,1,.42.06,1.19,1.19,0,0,1,.34.16,1.07,1.07,0,0,1,.25.27,1.27,1.27,0,0,1,.17.35,1.93,1.93,0,0,1,.08.43Z" transform="translate(-56.94 -79.02)"/><path class="cls-1" d="M76.78,83a2.5,2.5,0,0,0-1-1,3.35,3.35,0,0,0-1.58-.35,3.2,3.2,0,0,0-.83.1,3,3,0,0,0-.71.3,2.76,2.76,0,0,0-.57.45h0a2.31,2.31,0,0,0-.57-.45,2.74,2.74,0,0,0-.7-.3,3,3,0,0,0-.82-.1,3.35,3.35,0,0,0-1.58.35,2.5,2.5,0,0,0-1,1,2.61,2.61,0,0,0-.35,1.32v3.63H68.7V84.31a1.07,1.07,0,0,1,.18-.61A1.32,1.32,0,0,1,70,83.08a1.29,1.29,0,0,1,.65.17,1.32,1.32,0,0,1,.46.45,1.06,1.06,0,0,1,.17.61v3.63h1.65V84.31a1.06,1.06,0,0,1,.17-.61,1.27,1.27,0,0,1,.47-.45,1.3,1.3,0,0,1,.64-.17,1.29,1.29,0,0,1,.65.17,1.24,1.24,0,0,1,.46.45,1.07,1.07,0,0,1,.18.61v3.63h1.64V84.31A2.61,2.61,0,0,0,76.78,83Z" transform="translate(-56.94 -79.02)"/><path class="cls-1" d="M91.75,83.05a2.52,2.52,0,0,0-1-1,3.69,3.69,0,0,0-3.22,0,2.61,2.61,0,0,0-1,1,2.77,2.77,0,0,0-.35,1.38v3.51h1.64V84.43a1.3,1.3,0,0,1,.18-.68,1.44,1.44,0,0,1,.49-.49,1.3,1.3,0,0,1,.68-.18,1.27,1.27,0,0,1,.67.18,1.35,1.35,0,0,1,.49.49,1.3,1.3,0,0,1,.18.68v3.51H92.1V84.43A2.67,2.67,0,0,0,91.75,83.05Z" transform="translate(-56.94 -79.02)"/><path class="cls-1" d="M95.22,79.33a1,1,0,0,0-.73-.3,1,1,0,0,0,0,2.06,1,1,0,0,0,.73-.3,1,1,0,0,0,0-1.46Z" transform="translate(-56.94 -79.02)"/><path class="cls-1" d="M102.49,83.05a2.52,2.52,0,0,0-1-1,3.69,3.69,0,0,0-3.22,0,2.61,2.61,0,0,0-1,1,2.77,2.77,0,0,0-.35,1.38v3.51h1.64V84.43a1.3,1.3,0,0,1,.18-.68,1.44,1.44,0,0,1,.49-.49,1.3,1.3,0,0,1,.68-.18,1.33,1.33,0,0,1,.68.18,1.41,1.41,0,0,1,.48.49,1.3,1.3,0,0,1,.18.68v3.51h1.65V84.43A2.68,2.68,0,0,0,102.49,83.05Z" transform="translate(-56.94 -79.02)"/><path class="cls-1" d="M109.28,84.92a1.58,1.58,0,0,0-.75-.62,3,3,0,0,0-1.14-.2h-1.15a.45.45,0,0,1-.32-.12.42.42,0,0,1-.13-.32.39.39,0,0,1,.13-.31.49.49,0,0,1,.32-.12H109V81.82h-2.86a1.88,1.88,0,0,0-1,.26,2,2,0,0,0-.7.69,1.76,1.76,0,0,0-.25.94,1.84,1.84,0,0,0,.28,1.08,1.58,1.58,0,0,0,.75.6,2.8,2.8,0,0,0,1.07.19h1.15a.48.48,0,0,1,.26.07.58.58,0,0,1,.18.17.51.51,0,0,1,.06.25.48.48,0,0,1-.06.24.49.49,0,0,1-.44.23h-3v1.4h3.14a2,2,0,0,0,1-.25,2.07,2.07,0,0,0,.71-.7,1.88,1.88,0,0,0,.26-1A2.11,2.11,0,0,0,109.28,84.92Z" transform="translate(-56.94 -79.02)"/><path class="cls-1" d="M110.83,81.82v6.12h1.65V81.82Zm1.55-2.49a1,1,0,0,0-.73-.3,1,1,0,0,0,0,2.06,1,1,0,0,0,.73-.3,1,1,0,0,0,0-1.46Z" transform="translate(-56.94 -79.02)"/><path class="cls-1" d="M118.48,81.11v1.47h0a1.94,1.94,0,0,0-.47-.48,2,2,0,0,0-.64-.31,2.6,2.6,0,0,0-.74-.11,2.91,2.91,0,0,0-1.55.4,2.61,2.61,0,0,0-1,1.08,3.31,3.31,0,0,0-.37,1.6,3.79,3.79,0,0,0,.22,1.33,3.12,3.12,0,0,0,.62,1.06,2.67,2.67,0,0,0,1,.69,3.57,3.57,0,0,0,1.38.25,3.43,3.43,0,0,0,1.71-.41,2.78,2.78,0,0,0,1.12-1.16,3.75,3.75,0,0,0,.4-1.76V81.11Zm-.21,4.69a1.51,1.51,0,0,1-.53.64,1.43,1.43,0,0,1-.84.24,1.48,1.48,0,0,1-.84-.24,1.61,1.61,0,0,1-.54-.64,2.29,2.29,0,0,1-.18-.92,2.24,2.24,0,0,1,.18-.91,1.64,1.64,0,0,1,.54-.65,1.48,1.48,0,0,1,.84-.24,1.43,1.43,0,0,1,.84.24,1.54,1.54,0,0,1,.53.65,2.09,2.09,0,0,1,.19.91A2.13,2.13,0,0,1,118.27,85.8Z" transform="translate(-56.94 -79.02)"/><path class="cls-1" d="M126.91,83.27a2.63,2.63,0,0,0-1-1.16,2.89,2.89,0,0,0-1.67-.43,3,3,0,0,0-1.55.4,2.88,2.88,0,0,0-1.08,1.11,3.51,3.51,0,0,0-.39,1.69,2.94,2.94,0,0,0,.42,1.56,2.91,2.91,0,0,0,1.2,1.1,3.88,3.88,0,0,0,1.82.4h1.73v-1.4h-1.71a2.28,2.28,0,0,1-.8-.13,1.45,1.45,0,0,1-.58-.37,1.36,1.36,0,0,1-.33-.63h4.14s0-.14,0-.24,0-.21,0-.29A4.35,4.35,0,0,0,126.91,83.27Zm-3.9,1a1.91,1.91,0,0,1,.12-.47,1.33,1.33,0,0,1,.25-.41,1.17,1.17,0,0,1,.39-.29,1.25,1.25,0,0,1,.53-.1,1.42,1.42,0,0,1,.42.06,1.19,1.19,0,0,1,.34.16,1.29,1.29,0,0,1,.25.27,1.27,1.27,0,0,1,.17.35,2.74,2.74,0,0,1,.08.43Z" transform="translate(-56.94 -79.02)"/><path class="cls-2" d="M130,79V90.88H59.44a2.31,2.31,0,0,1-1.31-.37,2.55,2.55,0,0,1-.87-1,3,3,0,0,1-.32-1.38V81.68h1.72v6.68a.91.91,0,0,0,.23.61.7.7,0,0,0,.55.25H93.66v-7.4h1.66v7.4H127.9v-8.1h-7.77V79.18h-1.65v1.93h-6a1.08,1.08,0,0,0,.31-.23,1.15,1.15,0,0,0,0-1.61,1.08,1.08,0,0,0-.31-.23H127.9v0Z" transform="translate(-56.94 -79.02)"/><path class="cls-3" d="M84.23,85.34a3,3,0,1,1-3-3.09A3.06,3.06,0,0,1,84.23,85.34Z" transform="translate(-56.94 -79.02)"/><path class="cls-4" d="M84.77,85.39l0,.16,0,.16a.88.88,0,0,1,0,.15.88.88,0,0,1,0,.15l0,.15-.06.15a1,1,0,0,1-.07.15s-.05.09-.07.14,0,.09-.08.14a1.27,1.27,0,0,0-.1.12,1.47,1.47,0,0,0-.1.13l-.1.12-.11.12-.12.1-.12.1-.12.11-.13.09-.14.08a.61.61,0,0,1-.14.07l-.13.08-.15.07-.15,0-.15,0-.16,0-.15,0a.86.86,0,0,1-.16,0l-.16,0h-.32l-.15,0-.16,0-.16,0-.16,0-.15,0-.15,0-.15,0-.15-.07-.14-.08a.61.61,0,0,1-.14-.07.6.6,0,0,1-.13-.09.64.64,0,0,1-.14-.08l-.13-.1-.12-.1-.11-.12a1.31,1.31,0,0,1-.11-.12s-.08-.07-.11-.11l-.1-.13L79,86.73a1.1,1.1,0,0,1-.09-.14s0-.1-.07-.14l-.07-.15s-.06-.09-.08-.14,0-.1,0-.15a.75.75,0,0,1,0-.16.84.84,0,0,1-.06-.14,1,1,0,0,1,0-.17.8.8,0,0,1,0-.15,1887505691461.87,1887505691461.87,0,0,1,0-.32s0-.11,0-.16a.88.88,0,0,1,0-.16s0-.11,0-.16,0-.11,0-.16l0-.16s0-.1,0-.15a.88.88,0,0,0,0-.15l.06-.15a.94.94,0,0,1,.06-.15l.06-.15.08-.14s.06-.08.09-.13l.08-.13.1-.12.1-.13.11-.12a1.31,1.31,0,0,1,.12-.11l.12-.09.13-.1.13-.09.13-.1.14-.07.14-.07.14-.07.16,0,.15,0,.15,0,.16,0,.15,0,.16,0h.48l.16,0,.16,0,.15,0,.16,0,.15,0a.91.91,0,0,1,.14.07l.15.05a1.56,1.56,0,0,0,.15.06l.14.09.14.08.12.09.13.11.12.1a.58.58,0,0,1,.12.1l.11.12.1.13.09.13a1,1,0,0,1,.09.13l.09.14s0,.09.07.14a.61.61,0,0,1,.07.14s.06.09.08.14l.06.15,0,.16.06.15a.78.78,0,0,1,0,.16s0,.1,0,.15a2.57,2.57,0,0,1,0,.32v.16c0,.06,0,.11,0,.16S84.78,85.34,84.77,85.39Z" transform="translate(-56.94 -79.02)"/><path class="cls-5" d="M84.66,85s0-.08,0-.08,0,0,0,0,0-.12,0-.12,0,0,0,0,0,0,0,0a.12.12,0,0,1-.05-.08s0,0,0-.06,0,0,0,0,0,0,0,0,0,0,0-.08-.08-.06-.06-.07,0,0,0,0,0-.13,0-.13,0,0,0,0,0,0,0,0-.08,0-.09,0,0-.08,0-.09,0,0,0,0,0-.1,0-.1-.06.06-.07,0,0-.06,0-.07,0,0-.06,0,0,0,0-.05,0,0,0-.06,0-.05,0-.06,0,0,0-.06,0,0,0,0,0,0-.06,0a.08.08,0,0,1,0-.07.08.08,0,0,1-.08,0s.07-.07.08-.08-.1,0-.12,0a.1.1,0,0,1,0-.08.05.05,0,0,1-.07,0s0,0,0,0,0,0,0,0-.09,0-.08,0,0-.06,0-.09-.06,0-.05,0,0,0,0,0,0,0,0,0-.06,0-.08,0,0-.1,0-.11a0,0,0,0,1-.06,0s0,0,0-.06,0,0,0-.06-.08-.07-.06-.08,0,.06-.07,0,0,0,0,0,0-.06,0-.07-.07-.05-.06-.06,0,0,0,0-.07,0-.06,0,0-.08,0-.1-.09,0-.08,0,0,0,0,0,0,0,0,0,0-.08,0-.1-.07,0-.06,0,0,0,0,0-.05,0,0,0,0,0-.06,0,0-.06,0-.07,0,.08-.07.07,0,0,0,0,0-.06-.05-.07,0,0,0,0-.07.06-.1,0,0-.08,0-.09,0,0,0,0,0,0,0,0-.06,0-.09,0,0-.11,0-.13,0,.11-.06.1,0,0,0,0h-.06s-.06,0-.06,0,0,0-.07,0,0-.05,0-.06,0,0-.05,0S82,82,82,82s0,0,0,0l-.07,0s0,0,0,0,0,0,0,0a.15.15,0,0,1-.1,0s-.06,0-.06,0,0,.07,0,.07-.06,0-.06-.06,0,0-.07,0,0,0,0,0,0,0-.06,0a.05.05,0,0,1,0,0s0,.06,0,.07-.09-.08-.1-.1,0,0,0,0-.07.06-.07,0,0,0,0,0a.1.1,0,0,1-.07-.05s0,0-.06,0,0,0,0,0,0,.12,0,.12,0-.07-.06-.08,0,0,0,0,0,0-.06,0a0,0,0,0,1,0,0s-.06,0-.07,0,0,.08,0,.09-.07,0-.07-.07,0,0-.06,0,0,.08,0,.07,0,0,0,0-.08,0-.09,0,0,.11,0,.12-.08-.09-.09-.1,0,.11,0,.13-.08-.06-.09-.08,0,.13,0,.14-.07,0-.08,0,0,0,0,.05-.06,0-.07,0,0,0,0,.07,0,0-.05,0,0,.06,0,.07,0,.07-.06,0a0,0,0,0,1,0,.06s-.08,0-.09,0,0,.09,0,.11,0,0-.06,0,0,0,0,0,.06,0,.06,0-.06,0-.07,0,0,0-.06,0,0,.06,0,.08-.08.06-.09,0,0,0,0,0,0,.09-.05.08,0,0,0,0-.07,0-.08,0,0,0,0,0,0,.06,0,0,0,0,0,.06,0,0,0,0,0,0,0,0,0,.07,0,.06,0,0,0,0,0,.06-.06.05.06,0,0,.07a.12.12,0,0,1-.1,0s0,0,0,.06,0,.08-.05.07,0,0,0,0,0,.12,0,.11,0,0,0,0,0,0,0,0a.17.17,0,0,1,0,.12.22.22,0,0,1-.1,0s.06,0,.06.06,0,0,0,0a.08.08,0,0,1,0,.08s-.06,0-.08,0,0,.06,0,.08,0,.13,0,.13,0,0,0,0a.07.07,0,0,1,0,0s0,0,0,.06,0,.06,0,0,.09,0,.08.07-.08,0-.09,0,.09.05.08.08-.08,0-.09,0a.15.15,0,0,1,0,.09s0,0-.06,0,0,.07,0,.1,0,0,0,0,0,0,0,.08,0,.07,0,.07,0,0,0,0,0,0,0,0a.16.16,0,0,1,.08.1s-.06,0-.08,0,.08.06.09.09-.06,0-.08,0,0,.06,0,.09,0,.08,0,.09,0,0,0,0,0,.11,0,.11.07,0,.07,0,0,0-.06,0,.1,0,.1.07-.08,0-.1,0,.08,0,.08,0,0,0,0,.07a.05.05,0,0,1,0,0,.24.24,0,0,1,0,.13s0,0,0,0,.11,0,.09,0-.07,0-.06.07,0,.06,0,.07,0,0,0,0,0,.06,0,.07.06,0,.08,0,0,0,0,.06,0,0,0,.07.06,0,0,0,.07,0,.08,0,0,.08-.06.08.08,0,.09,0-.06.07-.07.07.09,0,.11,0a0,0,0,0,1,0,0,.14.14,0,0,1,.1,0s-.05.06-.05.09.09,0,.1,0,0,.1,0,.11,0,0,.07,0a.15.15,0,0,1,0,.13s0,0,0,0,.06,0,0,0,.08,0,.1,0,0,.08,0,.09.09,0,.1,0,0,.12,0,.13.06-.06.09,0,0,0,0,.07.1,0,.12,0,0,0,0,.06a.06.06,0,0,1,.07,0s0,.13,0,.14,0,0,0,0,.06-.06,0,0a.12.12,0,0,1,.1,0s0,.06,0,.07,0,0,.07,0,0,0,0,0,0,0,.06,0a.13.13,0,0,1,0,.11s0-.12.08-.11,0,0,0,0,0,0,.07.05a.15.15,0,0,1,0,.11s0,0,0,0,.06,0,.06,0,0-.12.06-.12,0,.07,0,.08a.09.09,0,0,1,.08,0s0,.07,0,.09,0,0,.07,0a.07.07,0,0,1,0,.07s0,0,.06,0,.12,0,.1,0,0-.05,0,0,0,.06,0,.07.06,0,.08,0,0,0,0,0,0,.07.06.07,0-.06,0,0a0,0,0,0,1,.05,0s.06.1.06.11,0-.11.06-.11,0,.11,0,.13,0,0,.06,0,.06,0,.06,0,0,0,.06,0,0,0,0,0h.06s0,0,0,0,0-.09.07-.09,0,.06,0,.07,0,0,.06,0,0,0,0,0a.05.05,0,0,1,0,0S82,88,82,88s0,0,0,0,.06,0,.06,0,0,0,.06,0,0,0,.06,0a.06.06,0,0,1,0-.05s.06,0,.06,0a.11.11,0,0,1,.06-.06h.05s0,0,0-.06a.06.06,0,0,1,.06,0s0,0,0-.06a.06.06,0,0,1,.07,0s0,0,.05,0,0,0,0,0,0-.08,0-.09.07,0,.08.06,0,0,0,0,0,0,0,0,0,0,.07,0,0,0,0,0,0,0,0-.06h0a.09.09,0,0,1,0-.09s0,0,.06,0,0,0,0-.05.06,0,.07,0h0s0,0,0-.05,0,0,.06,0h0l.06,0s0-.1,0-.09,0,0,0,0a.07.07,0,0,1,.08,0s0,0,0,0,0,0,0,0,0-.07,0-.09.06,0,.07,0,0-.09,0-.1.06-.06.07,0,0,0,0,0,.1,0,.11,0,0,0,0-.06,0,0,0,0,0,0,.07-.06.06,0,.07,0,0,0,0,0,0,0,0,0a.2.2,0,0,1,0-.11s.06,0,.07,0a.08.08,0,0,1,0-.09,0,0,0,0,1,.06,0s0,0,0,0,0-.06,0-.06,0,0,0-.06,0,0,0,0,.08,0,.1,0,0,0,0,0a.25.25,0,0,1,0-.09s.06-.09.08-.09,0,0,0,0,0,0,0,0,0,0,0-.08,0,0,0,0,0-.09,0-.11a.06.06,0,0,1,.06,0s-.06,0,0-.08.06-.05.08-.05-.07,0-.06-.07a.32.32,0,0,1,.09-.08s0,0,0,0,0-.06,0-.06-.06,0,0-.07.07,0,.09,0,0,0,0-.06,0,0,0,0,0,0,0-.06a.13.13,0,0,1,.06,0s-.07,0-.07-.06,0,0,.07,0-.11,0-.11-.06.07,0,.09,0S84.65,85.05,84.66,85Z" transform="translate(-56.94 -79.02)"/><path class="cls-4" d="M81.71,84.49c.06,0,.07-.12.09-.23l.4-1.68a.31.31,0,0,0-.22-.33,2.1,2.1,0,0,0-.56,0,1.88,1.88,0,0,0-.54.14.31.31,0,0,0-.17.36l.68,1.6c0,.1,0,.14.1.18S81.6,84.52,81.71,84.49Z" transform="translate(-56.94 -79.02)"/><path class="cls-6" d="M81.94,82.73l-.09.18a.24.24,0,0,0,0,.18s0,0,.08,0,0-.13,0-.19A.31.31,0,0,0,81.94,82.73Z" transform="translate(-56.94 -79.02)"/><path class="cls-6" d="M81,82.76a.62.62,0,0,0,0,.18s0,.11,0,.16.07,0,.06.05,0,.14,0,.14,0-.2,0-.25S81,82.76,81,82.76Z" transform="translate(-56.94 -79.02)"/><path class="cls-6" d="M81.52,83.3a.81.81,0,0,0,0,.16c0,.08,0,.17,0,.22a.75.75,0,0,0,0,.15.81.81,0,0,0,0-.16c0-.08,0-.24,0-.24Z" transform="translate(-56.94 -79.02)"/><path class="cls-6" d="M81.35,83.19a.19.19,0,0,0,0,.09s0,.08,0,.12.08,0,.08,0A.52.52,0,0,0,81.35,83.19Z" transform="translate(-56.94 -79.02)"/><path class="cls-6" d="M81.75,82.84a.32.32,0,0,0,0,.13s0,.12,0,.18.08,0,.08-.06A1,1,0,0,0,81.75,82.84Z" transform="translate(-56.94 -79.02)"/><path class="cls-6" d="M81.14,83.64l.06.14.12.24c0,.06.06,0,.05,0a1.89,1.89,0,0,1-.05-.23s0,.15,0,.1Z" transform="translate(-56.94 -79.02)"/><path class="cls-6" d="M81.35,83.59s.06.63.09.7,0,0,0,0S81.35,83.59,81.35,83.59Z" transform="translate(-56.94 -79.02)"/><path class="cls-6" d="M80.78,82.64a.35.35,0,0,0,0,.13c0,.07,0,.08.07.14s0,0,0-.06-.05-.15-.05-.17,0,0,0,0v-.07S80.77,82.6,80.78,82.64Z" transform="translate(-56.94 -79.02)"/><path class="cls-6" d="M81.89,83.28a.77.77,0,0,1,0,.2s-.06.32-.06.35,0-.1,0,0a.77.77,0,0,0,0,.26s.1-.3.12-.34a2.11,2.11,0,0,0,.06-.29s0-.22,0-.19A.22.22,0,0,1,81.89,83.28Z" transform="translate(-56.94 -79.02)"/><path class="cls-6" d="M82.11,82.63s0,.13-.09.21.06-.06,0,0S82,83,82,83s.08-.09.09-.15S82.15,82.64,82.11,82.63Z" transform="translate(-56.94 -79.02)"/><path class="cls-6" d="M81.58,82.53a.18.18,0,0,0,0,.11l0,.26a1.11,1.11,0,0,0,.07-.2s0-.15,0-.18S81.58,82.53,81.58,82.53Z" transform="translate(-56.94 -79.02)"/><path class="cls-6" d="M81.47,82.43s-.07-.06-.09,0,0,.08,0,.12,0,.15,0,.2a1.5,1.5,0,0,0,0,.22s0-.21,0-.28S81.5,82.46,81.47,82.43Z" transform="translate(-56.94 -79.02)"/><path class="cls-6" d="M80.93,83a.38.38,0,0,0,0,.08s0,.18.07.11S81,83,80.93,83Z" transform="translate(-56.94 -79.02)"/><path class="cls-6" d="M80.94,82.74s0,0,0,.09.09.08.1,0S81,82.68,80.94,82.74Z" transform="translate(-56.94 -79.02)"/><path class="cls-6" d="M81.45,84a.54.54,0,0,0,0,.14c0,.08,0,.17,0,.13a2.46,2.46,0,0,0,0-.28S81.45,84,81.45,84Z" transform="translate(-56.94 -79.02)"/><path class="cls-4" d="M81.31,85.35c-.06,0-.13.06-.21.13l-1.31,1.13a.3.3,0,0,0,0,.39,2,2,0,0,0,.42.37,2.11,2.11,0,0,0,.52.21.31.31,0,0,0,.35-.2l.39-1.68c0-.11,0-.14,0-.2S81.41,85.39,81.31,85.35Z" transform="translate(-56.94 -79.02)"/><path class="cls-4" d="M82,84.63c.1.05.15,0,.25-.13l1.29-1.15a.27.27,0,0,0,0-.37,2.17,2.17,0,0,0-.42-.38,1.89,1.89,0,0,0-.52-.2.29.29,0,0,0-.33.19l-.39,1.68c0,.13,0,.25,0,.29S81.89,84.6,82,84.63Z" transform="translate(-56.94 -79.02)"/><path class="cls-4" d="M81.16,85.08s-.14,0-.24,0l-1.72.14a.29.29,0,0,0-.24.31,2.06,2.06,0,0,0,.12.54,2.38,2.38,0,0,0,.3.48.32.32,0,0,0,.4,0l1.3-1.13c.08-.07.12-.09.13-.15S81.22,85.17,81.16,85.08Z" transform="translate(-56.94 -79.02)"/><path class="cls-4" d="M82.11,84.89c0,.09.14,0,.27,0l1.73-.17a.29.29,0,0,0,.23-.29,1.89,1.89,0,0,0-.13-.55,2,2,0,0,0-.3-.48.29.29,0,0,0-.38,0l-1.3,1.12c-.11.08-.19.17-.14.25S82.08,84.82,82.11,84.89Z" transform="translate(-56.94 -79.02)"/><path class="cls-4" d="M81.2,84.77s-.1-.1-.19-.15l-1.47-.91a.3.3,0,0,0-.38.11,1.89,1.89,0,0,0-.22.51,2,2,0,0,0,0,.56.32.32,0,0,0,.29.28L80.91,85c.12,0,.15,0,.2,0S81.19,84.88,81.2,84.77Z" transform="translate(-56.94 -79.02)"/><path class="cls-4" d="M82.08,85.18c0,.1.08.13.2.19l1.5.88a.28.28,0,0,0,.36-.09,2.21,2.21,0,0,0,.21-.52,1.81,1.81,0,0,0,0-.56.28.28,0,0,0-.29-.25L82.39,85c-.14,0-.26,0-.26.12S82.09,85.1,82.08,85.18Z" transform="translate(-56.94 -79.02)"/><path class="cls-4" d="M81.41,84.55s0-.14-.06-.24l-.67-1.6a.29.29,0,0,0-.36-.14,1.82,1.82,0,0,0-.48.29,2,2,0,0,0-.36.43.33.33,0,0,0,.08.4l1.47.89c.1.06.12.09.19.09S81.34,84.63,81.41,84.55Z" transform="translate(-56.94 -79.02)"/><path class="cls-4" d="M81.89,85.4c-.07.08,0,.15,0,.27l.7,1.6a.27.27,0,0,0,.34.13,1.82,1.82,0,0,0,.48-.29,1.78,1.78,0,0,0,.36-.43.29.29,0,0,0-.09-.37l-1.47-.91c-.11-.07-.22-.13-.28-.05S81.94,85.34,81.89,85.4Z" transform="translate(-56.94 -79.02)"/><path class="cls-4" d="M81.6,85.46c-.1,0-.09.12-.12.25l-.36,1.7a.27.27,0,0,0,.2.31,1.72,1.72,0,0,0,.56,0,2.06,2.06,0,0,0,.54-.13.31.31,0,0,0,.15-.36l-.66-1.59c0-.13-.11-.24-.2-.22S81.68,85.45,81.6,85.46Z" transform="translate(-56.94 -79.02)"/><path class="cls-6" d="M82.81,83.56a.72.72,0,0,1-.2.19.47.47,0,0,0-.24.22,1,1,0,0,1-.19.25c-.06.06-.2.18-.13.17s.19-.14.25-.19.2-.27.26-.3.12-.11.15-.15A1.88,1.88,0,0,0,82.81,83.56Z" transform="translate(-56.94 -79.02)"/><path class="cls-6" d="M83.18,83.37l-.18.09c-.06,0-.11.07-.12.13s0,0,.06,0,.07-.11.13-.14A.34.34,0,0,0,83.18,83.37Z" transform="translate(-56.94 -79.02)"/><path class="cls-6" d="M82.45,83.39s-.06,0-.07,0-.08,0-.08.09,0,0,.08,0A.85.85,0,0,0,82.45,83.39Z" transform="translate(-56.94 -79.02)"/><path class="cls-6" d="M82,83.62l0,.14A1.47,1.47,0,0,0,82,84c0,.06,0,.06,0,0s.07-.19.09-.21S82,84,82,83.9Z" transform="translate(-56.94 -79.02)"/><path class="cls-6" d="M82.31,82.63a.39.39,0,0,0-.08.09c0,.06,0,.09,0,.15s0,0,.05,0a1.15,1.15,0,0,0,.06-.17s0,.06,0,0a.21.21,0,0,0,0-.06S82.32,82.6,82.31,82.63Z" transform="translate(-56.94 -79.02)"/><path class="cls-6" d="M82.83,83.78a1.17,1.17,0,0,1-.12.15l-.25.24s.05-.09,0-.06a.77.77,0,0,0-.16.19l.28-.2.21-.19s.16-.15.12-.14A.13.13,0,0,1,82.83,83.78Z" transform="translate(-56.94 -79.02)"/><path class="cls-6" d="M83,83a.18.18,0,0,0-.08.07l-.13.22.17-.11s.1-.11.09-.15A0,0,0,0,0,83,83Z" transform="translate(-56.94 -79.02)"/><path class="cls-6" d="M83,82.86s0-.08-.07,0,0,.06-.05.1a.79.79,0,0,1-.12.15s-.08.16-.11.19l.19-.2S83,82.91,83,82.86Z" transform="translate(-56.94 -79.02)"/><path class="cls-6" d="M82.39,82.8s0,0-.07.06,0,.12.06.08S82.48,82.8,82.39,82.8Z" transform="translate(-56.94 -79.02)"/><path class="cls-6" d="M82.07,84.1l-.08.11c0,.06-.07.15,0,.13l.17-.22S82.07,84.1,82.07,84.1Z" transform="translate(-56.94 -79.02)"/><path class="cls-6" d="M82.69,83.33a.62.62,0,0,0-.08.1s-.09.14,0,.13.13-.15.17-.18,0-.16,0-.11Z" transform="translate(-56.94 -79.02)"/><path class="cls-6" d="M83.76,84.5c.07,0,.24,0,.31-.07s-.06,0-.06,0,.1,0,.09,0-.23,0-.23,0v0h-.07S83.74,84.51,83.76,84.5Z" transform="translate(-56.94 -79.02)"/><path class="cls-6" d="M83.52,83.76s-.12.06-.14.11-.11,0-.16,0,0,.06,0,.06h-.14a1.28,1.28,0,0,1,.21-.11Z" transform="translate(-56.94 -79.02)"/><path class="cls-6" d="M83.21,84.38a.69.69,0,0,0-.16,0c-.07,0-.15,0-.2.06a.46.46,0,0,0-.13.07l.16,0,.22-.06Z" transform="translate(-56.94 -79.02)"/><path class="cls-6" d="M83.25,84.19s-.06,0-.09,0-.09,0-.12,0,0,.07.06,0A.63.63,0,0,0,83.25,84.19Z" transform="translate(-56.94 -79.02)"/><path class="cls-6" d="M83.69,84.45a.26.26,0,0,0-.13,0s-.13,0-.17,0,0,.07.09,0A.82.82,0,0,0,83.69,84.45Z" transform="translate(-56.94 -79.02)"/><path class="cls-6" d="M82.77,84.14l-.1.1-.18.19s0,.06,0,0l.19-.12s-.14.06-.1,0Z" transform="translate(-56.94 -79.02)"/><path class="cls-6" d="M82.89,84.31s-.55.26-.6.31,0,0,0,0Z" transform="translate(-56.94 -79.02)"/><path class="cls-6" d="M83.34,84.71a.69.69,0,0,1-.18.06l-.34,0s.09,0,0,0a.92.92,0,0,0-.23.06H83s.23,0,.27,0,.22,0,.18,0Z" transform="translate(-56.94 -79.02)"/><path class="cls-6" d="M83.91,84.2a.24.24,0,0,0-.11,0l-.22.11h.2s.14,0,.16-.06A0,0,0,0,0,83.91,84.2Z" transform="translate(-56.94 -79.02)"/><path class="cls-6" d="M83.26,84.05s-.11,0-.15,0-.2,0-.25.08.15,0,.13,0a1.3,1.3,0,0,1-.17.08s-.06,0,.06,0l.23-.06S83.31,84.1,83.26,84.05Z" transform="translate(-56.94 -79.02)"/><path class="cls-6" d="M83.24,83.77h-.07s-.15.1-.08.1S83.27,83.8,83.24,83.77Z" transform="translate(-56.94 -79.02)"/><path class="cls-6" d="M83.52,83.68s0,0-.09,0,0,.11,0,.1S83.6,83.74,83.52,83.68Z" transform="translate(-56.94 -79.02)"/><path class="cls-6" d="M83.71,86a1.69,1.69,0,0,0-.14-.14c-.06,0-.1-.08-.16-.07s0,0,0,.07.12,0,.16.08A.43.43,0,0,0,83.71,86Z" transform="translate(-56.94 -79.02)"/><path class="cls-6" d="M83.68,85.84A2.71,2.71,0,0,1,84,86s0-.07,0-.07.09,0,.1,0-.2-.12-.2-.12l0,0s0,0-.06,0S83.66,85.84,83.68,85.84Z" transform="translate(-56.94 -79.02)"/><path class="cls-6" d="M83.44,85.29a.23.23,0,0,0-.07-.06s-.08,0-.12,0,0,.06,0,.08A.66.66,0,0,0,83.44,85.29Z" transform="translate(-56.94 -79.02)"/><path class="cls-6" d="M83.65,85.76a.23.23,0,0,0-.1-.07c-.06,0-.11-.07-.17-.07s0,.07,0,.1A1,1,0,0,0,83.65,85.76Z" transform="translate(-56.94 -79.02)"/><path class="cls-6" d="M83.07,85.18s-.59-.11-.66-.1,0,0,0,.06Z" transform="translate(-56.94 -79.02)"/><path class="cls-6" d="M84.07,84.9a.35.35,0,0,0-.11,0c-.06,0-.09,0-.15,0s0,0,0,0H84s0,0,0,0h.07S84.11,84.91,84.07,84.9Z" transform="translate(-56.94 -79.02)"/><path class="cls-6" d="M83.22,85.77a.69.69,0,0,1-.18-.06l-.3-.16s.1,0,.05,0a.62.62,0,0,0-.23-.09l.28.2.25.13s.19.11.16.07A.44.44,0,0,1,83.22,85.77Z" transform="translate(-56.94 -79.02)"/><path class="cls-6" d="M84.1,85.6s.07,0,0-.08a.22.22,0,0,0-.11,0l-.19-.06s-.17,0-.2,0l.24.11C83.93,85.53,84.06,85.63,84.1,85.6Z" transform="translate(-56.94 -79.02)"/><path class="cls-6" d="M83.53,85.18s-.11,0-.13-.08-.19-.09-.24-.08.14,0,.1.06a1,1,0,0,1-.18,0s-.07,0,0,0l.22.09S83.54,85.25,83.53,85.18Z" transform="translate(-56.94 -79.02)"/><path class="cls-6" d="M83.67,84.94l-.07,0s-.17,0-.12,0S83.67,85,83.67,84.94Z" transform="translate(-56.94 -79.02)"/><path class="cls-6" d="M82.66,85.16l-.13,0c-.07,0-.17,0-.13,0l.25.09S82.66,85.16,82.66,85.16Z" transform="translate(-56.94 -79.02)"/><path class="cls-6" d="M82.7,86.64a.74.74,0,0,1-.11-.26.52.52,0,0,0-.13-.3,1,1,0,0,1-.17-.26c0-.07-.11-.24-.12-.18s.07.23.1.31.19.27.19.34a.49.49,0,0,0,.1.19A1.31,1.31,0,0,0,82.7,86.64Z" transform="translate(-56.94 -79.02)"/><path class="cls-6" d="M82.82,86.94a2.49,2.49,0,0,1,.15.28s0-.07,0-.07,0,.09.06.08S83,87,83,87h0s0-.06,0-.07S82.8,86.92,82.82,86.94Z" transform="translate(-56.94 -79.02)"/><path class="cls-6" d="M83.51,86.79a.24.24,0,0,0-.07-.1s-.12-.15-.17-.19a2.22,2.22,0,0,1-.17-.18.2.2,0,0,0,0,.14s.08,0,.13.06l.12.15s0,0,0,0l.11.21Z" transform="translate(-56.94 -79.02)"/><path class="cls-6" d="M82.77,86.36a.53.53,0,0,0-.06-.15c0-.07-.09-.13-.11-.18a1.08,1.08,0,0,0-.11-.11,1.41,1.41,0,0,0,.06.15l.13.2Z" transform="translate(-56.94 -79.02)"/><path class="cls-6" d="M83,86.34s0-.06,0-.08,0-.09-.06-.11-.06,0,0,.08A.91.91,0,0,0,83,86.34Z" transform="translate(-56.94 -79.02)"/><path class="cls-6" d="M82.85,86.85a.31.31,0,0,0,0-.12s0-.12-.09-.16-.07,0,0,.1A.77.77,0,0,0,82.85,86.85Z" transform="translate(-56.94 -79.02)"/><path class="cls-6" d="M83.15,87a.27.27,0,0,0-.05-.11l-.16-.19a1.36,1.36,0,0,0,.06.2s.06.13.1.14S83.15,87,83.15,87Z" transform="translate(-56.94 -79.02)"/><path class="cls-6" d="M83.29,87s.08,0,.07,0,0-.06-.08-.09a1.12,1.12,0,0,1-.1-.16s-.12-.13-.14-.17l.13.25S83.25,87,83.29,87Z" transform="translate(-56.94 -79.02)"/><path class="cls-6" d="M83.1,86.32s-.06-.1,0-.15S83,86,82.91,86s.07.14,0,.12-.11-.12-.13-.13,0,0,0,0l.12.22S83.06,86.38,83.1,86.32Z" transform="translate(-56.94 -79.02)"/><path class="cls-6" d="M83.36,86.22l0-.07s-.13-.11-.11-.05S83.34,86.25,83.36,86.22Z" transform="translate(-56.94 -79.02)"/><path class="cls-6" d="M81.46,87.22a1.77,1.77,0,0,1,0,.32s.06-.05.06-.05,0,.11,0,.11,0-.24,0-.24l0,0s0,0,0-.07S81.46,87.19,81.46,87.22Z" transform="translate(-56.94 -79.02)"/><path class="cls-6" d="M82.12,87.48a.21.21,0,0,0,0-.12c0-.07,0-.19-.05-.25a2.35,2.35,0,0,1,0-.25A.21.21,0,0,0,82,87c0,.05.06.05.08.12a1.15,1.15,0,0,1,0,.19s0,0,0,0,0,.24,0,.24Z" transform="translate(-56.94 -79.02)"/><path class="cls-6" d="M81.9,86.8s0,0,0-.08,0-.09,0-.13-.07,0-.07,0A.45.45,0,0,0,81.9,86.8Z" transform="translate(-56.94 -79.02)"/><path class="cls-6" d="M81.53,87.16a.21.21,0,0,0,0-.13s0-.12,0-.18-.08,0-.08.07A1,1,0,0,0,81.53,87.16Z" transform="translate(-56.94 -79.02)"/><path class="cls-6" d="M81.89,86.42a5.8,5.8,0,0,0-.12-.68c0-.06,0,0,0,0S81.89,86.42,81.89,86.42Z" transform="translate(-56.94 -79.02)"/><path class="cls-6" d="M81.38,86.74a.69.69,0,0,1,0-.19s0-.31,0-.35,0,.11,0,0a.73.73,0,0,0,0-.25s-.08.3-.1.33a2.74,2.74,0,0,1,0,.28s0,.23,0,.19Z" transform="translate(-56.94 -79.02)"/><path class="cls-6" d="M81.2,87.38s0-.12.08-.21,0,.07,0,0,0-.15,0-.17-.08.09-.08.14S81.17,87.37,81.2,87.38Z" transform="translate(-56.94 -79.02)"/><path class="cls-6" d="M81.82,87.54s.06,0,.08,0,0-.07,0-.11a1.33,1.33,0,0,1,0-.2,1.65,1.65,0,0,1,0-.21,2.33,2.33,0,0,0,0,.27C81.83,87.36,81.78,87.51,81.82,87.54Z" transform="translate(-56.94 -79.02)"/><path class="cls-6" d="M82.3,86.92a.35.35,0,0,0,0-.07s0-.17-.07-.11S82.26,86.94,82.3,86.92Z" transform="translate(-56.94 -79.02)"/><path class="cls-6" d="M82.3,87.22a.09.09,0,0,0,0-.09c0-.06-.08-.08-.09,0S82.22,87.27,82.3,87.22Z" transform="translate(-56.94 -79.02)"/><path class="cls-6" d="M81.78,86v-.13c0-.08,0-.17,0-.13a2.62,2.62,0,0,0,0,.28S81.78,86,81.78,86Z" transform="translate(-56.94 -79.02)"/><path class="cls-6" d="M81.75,87a.42.42,0,0,0,0-.14c0-.06,0-.16,0-.13a2,2,0,0,0,0,.25c0,.05.07.14.06.08Z" transform="translate(-56.94 -79.02)"/><path class="cls-6" d="M80.43,86.42a.72.72,0,0,1,.2-.19.47.47,0,0,0,.24-.22,1,1,0,0,1,.19-.25c0-.06.19-.17.13-.17s-.19.14-.25.2-.2.26-.26.29-.12.12-.15.15A1.88,1.88,0,0,0,80.43,86.42Z" transform="translate(-56.94 -79.02)"/><path class="cls-6" d="M80.07,86.61l.17-.09c.06,0,.11-.07.12-.12s0-.05-.06,0-.07.1-.13.13A.28.28,0,0,0,80.07,86.61Z" transform="translate(-56.94 -79.02)"/><path class="cls-6" d="M80.19,86.63c0,.07-.17.18-.21.24h.07S80,86.94,80,87s.18-.16.18-.16v0a.22.22,0,0,0,.06,0S80.2,86.61,80.19,86.63Z" transform="translate(-56.94 -79.02)"/><path class="cls-6" d="M80.54,87.25a.34.34,0,0,0,.08-.1c0-.06.09-.16.11-.22l.12-.23a.17.17,0,0,0-.12.08s0,.07,0,.14l-.1.16s0,0,0,0l-.16.17Z" transform="translate(-56.94 -79.02)"/><path class="cls-6" d="M80.28,86.63a.25.25,0,0,0,.1-.08s.1-.08.11-.13,0,0-.1,0A.85.85,0,0,0,80.28,86.63Z" transform="translate(-56.94 -79.02)"/><path class="cls-6" d="M81.2,86.34l0-.14,0-.26c0-.06,0,0,0,0a.85.85,0,0,1-.09.22s.08-.13.08-.07S81.2,86.34,81.2,86.34Z" transform="translate(-56.94 -79.02)"/><path class="cls-6" d="M80.92,87.32a.39.39,0,0,0,.08-.09c0-.06,0-.09,0-.15s0,0,0,0a1.66,1.66,0,0,0-.06.16s0-.06,0,0l0,0S80.9,87.36,80.92,87.32Z" transform="translate(-56.94 -79.02)"/><path class="cls-6" d="M79.88,86.6a1.73,1.73,0,0,1,.19-.12s-.08,0,0,0a1.34,1.34,0,0,0,.14-.11s-.12,0-.15.07S79.86,86.56,79.88,86.6Z" transform="translate(-56.94 -79.02)"/><path class="cls-6" d="M80.27,87.11s0,.08.06,0,0-.06,0-.1l.12-.15s.09-.16.11-.18l-.18.19S80.26,87.07,80.27,87.11Z" transform="translate(-56.94 -79.02)"/><path class="cls-6" d="M80.85,86.7s.07-.08.12-.08.14-.16.16-.21-.1.11-.1.07a.83.83,0,0,1,.09-.16s0-.07-.05,0l-.16.19S80.78,86.69,80.85,86.7Z" transform="translate(-56.94 -79.02)"/><path class="cls-6" d="M81,86.93l0-.06s.07-.16,0-.12S81,86.92,81,86.93Z" transform="translate(-56.94 -79.02)"/><path class="cls-6" d="M79.48,85.41l.2,0a.2.2,0,0,0,.17,0s0,0,0-.06-.12,0-.18,0A.32.32,0,0,0,79.48,85.41Z" transform="translate(-56.94 -79.02)"/><path class="cls-6" d="M79.78,86.25s.13-.07.15-.11.12,0,.17,0,0-.06,0-.06h.13a1.28,1.28,0,0,1-.21.11Z" transform="translate(-56.94 -79.02)"/><path class="cls-6" d="M80.12,85.63a.49.49,0,0,0,.16,0l.2-.05a.58.58,0,0,0,.14-.07h-.16l-.23.06Z" transform="translate(-56.94 -79.02)"/><path class="cls-6" d="M80.08,85.82s0,0,.08,0,.09,0,.12,0,0-.07-.06-.06A.51.51,0,0,0,80.08,85.82Z" transform="translate(-56.94 -79.02)"/><path class="cls-6" d="M79.64,85.55a.26.26,0,0,0,.13,0s.13,0,.17,0,0-.07-.08-.06A1.72,1.72,0,0,0,79.64,85.55Z" transform="translate(-56.94 -79.02)"/><path class="cls-6" d="M80.44,85.71a6.33,6.33,0,0,0,.6-.29c.06,0,0,0,0,0S80.44,85.71,80.44,85.71Z" transform="translate(-56.94 -79.02)"/><path class="cls-6" d="M79.75,86.5l.12,0c.06,0,.06-.06.1-.11s0,0-.06,0l-.13.1s0,0,0,0l-.06,0S79.72,86.51,79.75,86.5Z" transform="translate(-56.94 -79.02)"/><path class="cls-6" d="M80,85.29l.19,0,.33,0s-.09,0,0,0a.7.7,0,0,0,.23,0h-.33s-.23,0-.28,0-.22,0-.18,0A.17.17,0,0,1,80,85.29Z" transform="translate(-56.94 -79.02)"/><path class="cls-6" d="M79.41,85.79a.15.15,0,0,0,.11,0l.23-.09a1.09,1.09,0,0,0-.2,0s-.14,0-.16.06A0,0,0,0,0,79.41,85.79Z" transform="translate(-56.94 -79.02)"/><path class="cls-6" d="M79.36,85.93s0,.08,0,.08.07,0,.1-.05l.19,0s.16-.07.2-.08l-.27,0C79.53,85.89,79.37,85.89,79.36,85.93Z" transform="translate(-56.94 -79.02)"/><path class="cls-6" d="M80.06,86a.36.36,0,0,1,.15,0s.2,0,.25-.07-.15,0-.13,0a1.22,1.22,0,0,1,.17-.07s.06,0-.06,0l-.23,0S80,85.91,80.06,86Z" transform="translate(-56.94 -79.02)"/><path class="cls-6" d="M79.79,86.32s0,0,.08,0,0-.11,0-.09S79.71,86.26,79.79,86.32Z" transform="translate(-56.94 -79.02)"/><path class="cls-6" d="M80.8,85.49l.13,0c.07,0,.14-.07.11-.07l-.27.07S80.8,85.49,80.8,85.49Z" transform="translate(-56.94 -79.02)"/><path class="cls-6" d="M79.6,84l.14.14c.06,0,.1.08.15.07s0,0,0-.07-.11,0-.16-.08A.27.27,0,0,0,79.6,84Z" transform="translate(-56.94 -79.02)"/><path class="cls-6" d="M79.38,84.87h.18s.09.06.14.09,0,0,0,0l.12.07a1.39,1.39,0,0,1-.24,0Z" transform="translate(-56.94 -79.02)"/><path class="cls-6" d="M79.86,84.68a.14.14,0,0,0,.07.06s.07.05.11.05,0-.07,0-.09A.56.56,0,0,0,79.86,84.68Z" transform="translate(-56.94 -79.02)"/><path class="cls-6" d="M79.65,84.21a.23.23,0,0,0,.1.07c.06,0,.11.07.17.07s0-.07,0-.1A1,1,0,0,0,79.65,84.21Z" transform="translate(-56.94 -79.02)"/><path class="cls-6" d="M80.21,85l.14,0,.25,0c.06,0,.05,0,0,0a.9.9,0,0,1-.23,0s.14,0,.09.06Z" transform="translate(-56.94 -79.02)"/><path class="cls-6" d="M80.22,84.8s.59.12.66.11,0,0,0-.06Z" transform="translate(-56.94 -79.02)"/><path class="cls-6" d="M79.22,85.05a.27.27,0,0,0,.11,0c.06,0,.08,0,.14,0s0,0,0,0a1,1,0,0,0-.17,0s0,0,0,0l-.06,0S79.18,85.05,79.22,85.05Z" transform="translate(-56.94 -79.02)"/><path class="cls-6" d="M80.08,84.2a1,1,0,0,1,.18.07l.3.16s-.1,0,0,0a.78.78,0,0,0,.22.09l-.27-.2s-.2-.11-.24-.14-.2-.11-.17-.08A.44.44,0,0,1,80.08,84.2Z" transform="translate(-56.94 -79.02)"/><path class="cls-6" d="M79.55,83.81l.17.15s0-.07,0,0a1.7,1.7,0,0,1,.14.1c.05,0-.06-.11-.1-.13S79.57,83.78,79.55,83.81Z" transform="translate(-56.94 -79.02)"/><path class="cls-6" d="M79.2,84.35s-.07.05,0,.08.07,0,.11,0l.19.07a1.77,1.77,0,0,0,.2,0l-.24-.11C79.37,84.43,79.24,84.33,79.2,84.35Z" transform="translate(-56.94 -79.02)"/><path class="cls-6" d="M79.77,84.78s.1,0,.12.09.19.09.24.09-.14-.06-.1-.07a1,1,0,0,1,.18,0s.07,0,0,0L80,84.79S79.75,84.72,79.77,84.78Z" transform="translate(-56.94 -79.02)"/><path class="cls-6" d="M79.62,85l.06,0s.18,0,.12,0S79.61,85,79.62,85Z" transform="translate(-56.94 -79.02)"/><path class="cls-6" d="M79.34,84.93s0,0,.08,0,.1-.06,0-.08S79.31,84.84,79.34,84.93Z" transform="translate(-56.94 -79.02)"/><path class="cls-6" d="M80.63,84.83l.13,0c.07,0,.16,0,.13,0l-.25-.1S80.63,84.83,80.63,84.83Z" transform="translate(-56.94 -79.02)"/><path class="cls-6" d="M79.72,84.47a.36.36,0,0,0,.12,0c.06,0,.16,0,.13,0s-.18-.08-.22-.11-.15,0-.09,0Z" transform="translate(-56.94 -79.02)"/><path class="cls-6" d="M80.6,83.36a.59.59,0,0,1,.13.25.52.52,0,0,0,.16.29,1.33,1.33,0,0,1,.19.24c0,.07.12.24.13.17s-.09-.22-.12-.29-.21-.26-.22-.33a.46.46,0,0,0-.11-.18A1.8,1.8,0,0,0,80.6,83.36Z" transform="translate(-56.94 -79.02)"/><path class="cls-6" d="M80.51,83a1.32,1.32,0,0,0,0,.2.27.27,0,0,0,.08.15s0,0,0,0-.08-.1-.09-.16A.4.4,0,0,0,80.51,83Z" transform="translate(-56.94 -79.02)"/><path class="cls-6" d="M80.46,83.07s-.12-.21-.17-.27,0,.07,0,.07,0-.09-.07-.07.1.21.1.21h0s0,.06,0,.07S80.48,83.09,80.46,83.07Z" transform="translate(-56.94 -79.02)"/><path class="cls-6" d="M79.79,83.28a.25.25,0,0,0,.07.09c.06,0,.14.13.19.17l.19.17a.2.2,0,0,0,0-.14s-.08,0-.13,0a.89.89,0,0,1-.13-.14s0,0,0,0-.13-.2-.13-.2Z" transform="translate(-56.94 -79.02)"/><path class="cls-6" d="M80.37,83.68s0,.06,0,.08,0,.09.06.1.06,0,0-.08A.44.44,0,0,0,80.37,83.68Z" transform="translate(-56.94 -79.02)"/><path class="cls-6" d="M80.44,83.16a.24.24,0,0,0,0,.12s.05.12.1.15.06-.05,0-.11A1.06,1.06,0,0,0,80.44,83.16Z" transform="translate(-56.94 -79.02)"/><path class="cls-6" d="M80.61,84a6,6,0,0,0,.5.46c.06,0,0,0,0-.06S80.61,84,80.61,84Z" transform="translate(-56.94 -79.02)"/><path class="cls-6" d="M79.63,83.63a.45.45,0,0,0,.07.1s.08,0,.14.06,0,0,0-.06a1.1,1.1,0,0,0-.14-.09s.06,0,0,0l0,0S79.6,83.61,79.63,83.63Z" transform="translate(-56.94 -79.02)"/><path class="cls-6" d="M80.57,82.77s0,.13.06.22,0-.08,0,0,0,.15.07.16,0-.12,0-.16S80.6,82.76,80.57,82.77Z" transform="translate(-56.94 -79.02)"/><path class="cls-6" d="M80,83s-.08,0-.07,0,0,0,.08.07a1,1,0,0,1,.12.16s.13.12.15.15l-.14-.23S80,83,80,83Z" transform="translate(-56.94 -79.02)"/><path class="cls-6" d="M80.24,83.71s.06.09.05.14.12.18.16.21-.08-.13,0-.12.12.12.14.13.06.05,0-.06l-.14-.2S80.26,83.65,80.24,83.71Z" transform="translate(-56.94 -79.02)"/><path class="cls-6" d="M80,83.83a.29.29,0,0,0,0,.06s.14.11.12,0S80,83.8,80,83.83Z" transform="translate(-56.94 -79.02)"/><path class="cls-6" d="M79.81,83.6s0,0,0,.08.12,0,.09,0S79.83,83.5,79.81,83.6Z" transform="translate(-56.94 -79.02)"/><path class="cls-6" d="M80.94,84.23l.09.1c0,.06.13.11.11.08L81,84.18S80.94,84.23,80.94,84.23Z" transform="translate(-56.94 -79.02)"/><path class="cls-2" d="M110.52,80.86a1,1,0,0,0,.31.23H95.32a1.12,1.12,0,0,0,.32-.23,1.15,1.15,0,0,0,0-1.61,1.12,1.12,0,0,0-.32-.23h15.51a1,1,0,0,0-.31.23,1.15,1.15,0,0,0,0,1.61Z" transform="translate(-56.94 -79.02)"/></svg>